<svg xmlns="http://www.w3.org/2000/svg" width="861" height="260" viewBox="0 0 861 260">
  <defs>
    <linearGradient id="a" x1="18.636%" x2="82.104%" y1="9.002%" y2="96.084%">
      <stop stop-color="#FF9F1C" stop-opacity=".854" offset="0%"/>
      <stop stop-color="#F9690E" offset="100%"/>
    </linearGradient>
    <linearGradient id="b" x1="19.503%" x2="78.712%" y1="7.602%" y2="82.739%">
      <stop stop-color="#FF9F1C" offset="0%"/>
      <stop stop-color="#F9690E" offset="100%"/>
    </linearGradient>
  </defs>
  <g fill="none" fill-rule="evenodd">
    <g transform="translate(0 11)">
      <path fill="#2F396B" d="M92.5264179 158.486564C99.9667238 158.486564 106.446234 157.81134 111.965142 156.460872 117.48405 155.110404 122.737154 153.248422 127.724612 150.874872L127.724612 118.586564 105.526448 118.586564C103.400646 118.586564 101.724558 117.993185 100.498134 116.80641 99.2717103 115.619635 98.6585075 114.16688 98.6585075 112.448103L98.6585075 93.7871795 157.649209 93.7871795 157.649209 165.607179C153.152321 168.881042 148.471539 171.725167 143.606724 174.139641 138.741909 176.554115 133.550125 178.538864 128.031216 180.093949 122.512308 181.649033 116.605121 182.815329 110.309478 183.592872 104.013834 184.370414 97.227723 184.759179 89.9509403 184.759179 77.0326071 184.759179 65.1364723 182.508433 54.2621791 178.006872 43.3878859 173.505311 33.9854426 167.244143 26.0545672 159.223179 18.1236917 151.202216 11.9303432 141.626312 7.47433582 130.495179 3.01832847 119.364047.790358209 107.210015.790358209 94.0327179.790358209 80.6917282 2.95700818 68.4558505 7.29037313 57.3247179 11.6237381 46.1935854 17.7762064 36.6176811 25.7479627 28.5967179 33.719719 20.5757548 43.3878835 14.3555093 54.7527463 9.93579487 66.1176091 5.51608047 78.8722278 3.30625641 93.0169851 3.30625641 107.488789 3.30625641 120.018566 5.45469646 130.606694 9.75164103 141.194822 14.0485856 150.168023 19.6345297 157.526567 26.509641L147.960507 41.4874872C146.079991 44.51581 143.586299 46.0299487 140.479358 46.0299487 138.51708 46.0299487 136.513951 45.375186 134.46991 44.065641 131.853539 42.5105563 129.175887 40.955495 126.436873 39.4004103 123.697859 37.8453256 120.672726 36.4948775 117.361381 35.3490256 114.050036 34.2031738 110.329939 33.2619524 106.200978 32.5253333 102.072017 31.7887143 97.3094747 31.4204103 91.913209 31.4204103 83.1647175 31.4204103 75.254401 32.8936263 68.1820224 35.8401026 61.1096437 38.7865788 55.079816 43.0016136 50.0923582 48.4853333 45.1049004 53.9690531 41.2621627 60.5576026 38.5640299 68.2511795 35.865897 75.9447564 34.5168507 84.5385166 34.5168507 94.0327179 34.5168507 104.263538 35.9476573 113.368832 38.8093134 121.348872 41.6709695 129.328912 45.677228 136.060691 50.828209 141.54441 55.9791899 147.02813 62.1112182 151.222703 69.2244776 154.128256 76.3377371 157.033809 84.1049728 158.486564 92.5264179 158.486564zM405.004075 184.759179C394.129781 184.759179 385.749343 181.669518 379.862507 175.490103 373.975672 169.310687 371.032299 160.778311 371.032299 149.892718L371.032299 79.5459487 358.277552 79.5459487C356.64232 79.5459487 355.231954 79.013954 354.04641 77.9499487 352.860867 76.8859434 352.268104 75.2899594 352.268104 73.1619487L352.268104 61.1305641 372.504 57.8157949 378.881373 23.4404103C379.20842 21.803479 379.964703 20.5348763 381.150246 19.6345641 382.33579 18.7342519 383.827916 18.2841026 385.626672 18.2841026L401.324821 18.2841026 401.324821 57.9385641 434.438104 57.9385641 434.438104 79.5459487 401.324821 79.5459487 401.324821 147.805641C401.324821 151.734276 402.305945 154.803476 404.268224 157.013333 406.230502 159.223191 408.846834 160.328103 412.117299 160.328103 413.997815 160.328103 415.571703 160.103028 416.839007 159.652872 418.106312 159.202716 419.210077 158.732105 420.150336 158.241026 421.090594 157.749946 421.928638 157.279336 422.664493 156.829179 423.400347 156.379023 424.13619 156.153949 424.872045 156.153949 425.771422 156.153949 426.507266 156.379023 427.079597 156.829179 427.651928 157.279336 428.265131 157.95456 428.919224 158.854872L437.994716 173.587179C433.57959 177.270275 428.510447 180.053016 422.787134 181.935487 417.063822 183.817958 411.136195 184.759179 405.004075 184.759179zM547.023269 83.4745641C546.123891 84.620416 545.244967 85.5207147 544.38647 86.1754872 543.527973 86.8302597 542.281128 87.157641 540.645896 87.157641 539.092425 87.157641 537.579858 86.6870303 536.108149 85.7457949 534.63644 84.8045594 532.878592 83.74057 530.834552 82.5537949 528.790512 81.3670197 526.358141 80.3030303 523.537366 79.3617949 520.71659 78.4205594 517.221334 77.9499487 513.051493 77.9499487 507.736988 77.9499487 503.076647 78.9116314 499.070328 80.8350256 495.06401 82.7584199 491.732274 85.5206999 489.075022 89.1219487 486.41777 92.7231975 484.435081 97.0814616 483.126896 102.196872 481.81871 107.312282 481.164627 113.102839 481.164627 119.568718 481.164627 126.280136 481.88003 132.254846 483.310858 137.493026 484.741686 142.731206 486.806136 147.130392 489.504269 150.690718 492.202402 154.251043 495.472817 156.95194 499.315612 158.793487 503.158407 160.635035 507.491707 161.555795 512.315642 161.555795 517.139576 161.555795 521.043634 160.962416 524.027933 159.775641 527.012231 158.588866 529.526363 157.27934 531.570403 155.847026 533.614443 154.414711 535.392731 153.105185 536.905321 151.91841 538.417911 150.731635 540.114438 150.138256 541.994955 150.138256 544.447803 150.138256 546.287412 151.079478 547.513836 152.961949L556.221403 164.011179C552.869177 167.939815 549.230841 171.234089 545.306284 173.894103 541.381727 176.554116 537.314148 178.682095 533.103425 180.278103 528.892703 181.874111 524.538963 182.999484 520.042075 183.654256 515.545186 184.309029 511.089246 184.63641 506.674119 184.63641 498.906767 184.63641 491.589213 183.183656 484.721239 180.278103 477.853264 177.37255 471.864317 173.137053 466.754216 167.571487 461.644116 162.005921 457.596978 155.192297 454.612679 147.13041 451.628381 139.068524 450.136254 129.881385 450.136254 119.568718 450.136254 110.320056 451.46486 101.746757 454.122112 93.8485641 456.779364 85.9503708 460.683422 79.1162853 465.834403 73.3461026 470.985384 67.5759199 477.362693 63.0539651 484.966522 59.7801026 492.570351 56.50624 501.318712 54.8693333 511.211866 54.8693333 520.61445 54.8693333 528.851808 56.383472 535.924187 59.4117949 542.996565 62.4401177 549.353434 66.7779205 554.994985 72.4253333L547.023269 83.4745641zM575.598806 182.794872L575.598806.359794872 605.891328.359794872 605.891328 70.4610256C610.797025 65.7957715 616.193209 62.0308861 622.080045 59.1662564 627.96688 56.3016267 634.875632 54.8693333 642.806507 54.8693333 649.674482 54.8693333 655.76563 56.0356294 661.080134 58.3682564 666.394639 60.7008835 670.830139 63.9746969 674.386769 68.1897949 677.943398 72.4048929 680.641491 77.438381 682.481127 83.2904103 684.320763 89.1424395 685.240567 95.5877597 685.240567 102.626564L685.240567 182.794872 654.948045 182.794872 654.948045 102.626564C654.948045 94.9329872 653.169757 88.978739 649.613127 84.763641 646.056497 80.548543 640.721633 78.4410256 633.608373 78.4410256 628.375631 78.4410256 623.470008 79.627783 618.891358 82.0013333 614.312708 84.3748837 609.979408 87.6077744 605.891328 91.7001026L605.891328 182.794872 575.598806 182.794872z"/>
      <path fill="url(#a)" d="M73.9543731,151.153949 C80.3317782,151.153949 86.0345644,150.089959 91.062903,147.961949 C96.0912416,145.833938 100.342781,142.846583 103.817649,138.999795 C107.292517,135.153006 109.94973,130.487822 111.789366,125.004103 C113.629002,119.520383 114.548806,113.381983 114.548806,106.588718 L114.548806,0.270564103 L147.539448,0.270564103 L147.539448,106.588718 C147.539448,117.146925 145.84292,126.906981 142.449813,135.869179 C139.056707,144.831378 134.171524,152.565762 127.794119,159.072564 C121.416714,165.579366 113.690359,170.653777 104.614821,174.295949 C95.539283,177.938121 85.3192359,179.759179 73.9543731,179.759179 C62.5895103,179.759179 52.3694633,177.938121 43.2939254,174.295949 C34.2183875,170.653777 26.512472,165.579366 20.1759478,159.072564 C13.8394235,152.565762 8.97468114,144.831378 5.58157463,135.869179 C2.18846811,126.906981 0.491940299,117.146925 0.491940299,106.588718 L0.491940299,0.270564103 L33.4825821,0.270564103 L33.4825821,106.465949 C33.4825821,113.259213 34.4023863,119.397614 36.2420224,124.881333 C38.0816585,130.365053 40.7184306,135.050699 44.1524179,138.93841 C47.5864052,142.826122 51.8175047,145.833938 56.8458433,147.961949 C61.8741819,150.089959 67.5769681,151.153949 73.9543731,151.153949 Z" transform="translate(712.522 5)"/>
    </g>
    <path fill="url(#b)" fill-rule="nonzero" d="M155.775519,26.4224187 C188.013149,56.2003508 189.06332,116.975008 162.046527,152.943779 C162.046527,152.943779 121.095175,223.708034 98.1306653,256.83637 C97.0891153,258.338898 90.8890088,258.965174 90.8890088,258.965174 C90.8890088,258.965174 83.0123195,258.202715 82.1601939,256.83637 C60.9456386,222.819788 17.9021946,152.798422 17.9021946,152.798422 C-9.00662528,116.975008 -5.09611465,57.8476181 26.3710555,26.4224187 C43.3745003,9.43911935 65.9784723,0.0847068101 90.0283474,0.0847068101 C114.073528,0.0847068101 131.194399,3.7168132 155.775519,26.4224187 Z M90.5019868,20.9419723 C50.9378933,20.9419723 18.8696189,53.0102467 18.8696189,92.5747864 C18.8696189,121.081654 35.5647714,145.622877 59.6705226,157.152161 L61.9125757,113.829003 C61.9125757,113.829003 57.695285,112.444954 56.7721392,111.994312 C47.8271284,108.054099 41.3289671,96.4525343 41.3289671,81.3953076 C41.3289671,64.9647397 54.0714134,50.8123654 66.3908814,50.6954664 L66.4167599,50.6954664 L66.4372841,50.6954664 C78.7594292,50.8119193 91.5023218,64.9642935 91.5023218,81.3953076 C91.5023218,96.4525343 84.9961292,108.049191 76.0694117,111.994312 C75.9993615,112.025099 70.8879267,113.881206 70.8879267,113.881206 L73.3918873,162.051214 C78.8865904,163.403585 84.5994754,164.197338 90.5118028,164.197338 C98.4850342,164.197338 106.120954,162.839167 113.285261,160.43872 L115.504113,117.509986 C109.656928,116.224096 104.669531,112.501618 101.543596,107.831455 C97.6712024,102.030673 104.524523,50.6905584 104.524523,50.6905584 L108.98275,50.6905584 L108.98275,98.8681512 L113.410192,98.8681512 L113.410192,50.6959125 L118.252134,50.6959125 L118.252134,98.8788595 L122.658605,98.8788595 L122.658605,50.6959125 L127.682142,50.6959125 L127.682142,98.8788595 L132.103783,98.8788595 L132.103783,50.6959125 L135.525089,50.6959125 C135.525089,50.6959125 142.378409,102.036027 138.501108,107.83681 C135.405959,112.461016 130.465411,116.172785 124.690953,117.489461 C124.58744,117.526048 124.493742,117.561743 124.493742,117.561743 L126.422131,154.488022 C147.759783,142.082441 162.140155,119.034582 162.140155,92.5752326 C162.129447,53.0106929 130.061172,20.9419723 90.5019868,20.9419723 Z M51.8137441,74.11187 C52.0702974,73.0673633 52.4151943,72.0746134 52.4308106,72.0567662 C52.5423556,71.6654666 52.334882,71.2661358 51.9096727,71.0122595 C51.5054339,70.7945238 51.0128515,70.9060687 50.7848537,71.2558736 C50.7848537,71.2558736 50.2949483,72.0362419 49.5846302,73.1896165 C49.0068275,74.1823664 48.151501,75.7685352 47.567898,77.7437728 C47.0623763,79.4749501 46.4586952,81.7767912 46.1865256,84.3530329 C46.0700727,85.7062959 46.0437481,86.9270436 46.0852428,88.1839319 C46.1865256,89.6170611 46.4038151,90.8431629 46.8187622,92.2455058 C48.226013,96.2450607 49.3097835,100.117901 53.2209949,103.938091 C54.4573589,105.208365 55.7276325,106.073954 56.644978,106.711544 L56.9689045,106.939542 C57.1661159,107.069381 57.3552961,107.188957 57.5417992,107.297825 C58.3119054,107.702063 58.827243,107.847072 58.9209407,107.867596 C59.3042091,107.97111 59.6986319,107.784607 59.8614875,107.473619 C60.0145272,107.147016 59.9029822,106.737423 59.5844099,106.478639 C59.5844099,106.478639 59.1382302,106.090016 58.5657817,105.364082 C58.174482,104.923256 57.7492728,104.285665 57.2544595,103.565531 C56.9046546,103.057333 56.4923845,102.481761 56.10867,101.921805 C54.2034826,99.0136058 53.1049882,94.954709 51.5857463,90.7967603 C51.2876982,89.8945849 51.0440841,88.725594 50.9530634,87.7328442 C50.8317025,86.5870547 50.7745915,85.4832061 50.7745915,84.4592236 C50.7304197,82.0797472 50.8366105,80.0371365 51.0440841,78.3809174 C51.282344,76.5123168 51.4688472,75.109974 51.8137441,74.11187 Z" transform="translate(171)"/>
  </g>
</svg>
